# xmcd
#
# Track frame offsets: 
#        182
#        10885
#        23530
#        37745
#        48895
#        59325
#        69750
#        81850
#        93337
#        103820
#        113720
#        125570
#        139157
#        151640
#        162895
#        174435
#        185832
#        196710
#        207975
#        221770
#        232812
#        245737
#        258497
#        270825
#        281485
#
# Disc length: 3901 seconds
#
# Revision: 2
# Processed by: cddbd v1.5.2PL0 Copyright (c) Steve Scherf et al.
# Submitted via: ExactAudioCopy v0.95b4
#
DISCID=4a0f3b19
DTITLE=Various Artist - Country Lover
DYEAR=1994
DGENRE=Country
TTITLE0=Patsy Cline - Lovesick Blues
TTITLE1=Stonewall Jackson - Me and You And A Dog Named Boo
TTITLE2=Conway Twitty - You've Never Been This Far Before
TTITLE3=Roger Miller - Husbands and Wives
TTITLE4=Faron Young - Hello Walls
TTITLE5=Ralph Emery - Hello Fool
TTITLE6=Hank Thompson - Wild Side Of Life
TTITLE7=Kitty Wells - It Wasn't God Who Made Honky Tonk Angels
TTITLE8=Charlie Walker - Pick Me Up On Your Way Down
TTITLE9=Hank Locklin - Please Help Me I'm Falling
TTITLE10=Skeeter Davis - I Can't Help You (I'm Falling Too)
TTITLE11=Nat Stuckey - Sweet Thang
TTITLE12=Bobby Helms - Fraulein
TTITLE13=Don Gibson - Oh, Lonesome Me
TTITLE14=Sammi Smith - Help Me Make It Through The Night
TTITLE15=Connie Smith - Just One Time
TTITLE16=Billy Walker - Charlie's Shoes
TTITLE17=Conway Twitty - Hello Darlin'
TTITLE18=Johnny Paycheck - Someone To Give My Love To
TTITLE19=Johnny Russell - Blue Eyes Crying In The Rain
TTITLE20=Jerry Wallace - In The Misty Moonlight
TTITLE21=Roy Drusky - Three Hearts In A Tangle
TTITLE22=Jean Shepard - Then He Touched Me
TTITLE23=Carl Smith - Don't Just Stand There (When You Feel Like You'r
TTITLE23=e In Love)
TTITLE24=Patsy Cline - Just Out Of Reach
EXTD=
EXTT0=
EXTT1=
EXTT2=
EXTT3=
EXTT4=
EXTT5=
EXTT6=
EXTT7=
EXTT8=
EXTT9=
EXTT10=
EXTT11=
EXTT12=
EXTT13=
EXTT14=
EXTT15=
EXTT16=
EXTT17=
EXTT18=
EXTT19=
EXTT20=
EXTT21=
EXTT22=
EXTT23=
EXTT24=
PLAYORDER=
